<svg width="259" height="32" viewBox="0 0 259 32" fill="none" xmlns="http://www.w3.org/2000/svg">
<g clip-path="url(#clip0_679_7658)">
<path d="M32.9462 0H16.9766L29.6296 3.56423L32.9462 16.0841V0Z" fill="#1F7298"/>
<path d="M0.945312 32H16.9211L4.26195 28.4358L0.945312 15.9159V32Z" fill="#1F7298"/>
<path fill-rule="evenodd" clip-rule="evenodd" d="M16.9746 4.67627C23.2799 4.67627 28.3885 9.73111 28.3885 15.97C28.3885 22.2089 23.2799 27.2698 16.9746 27.2698C10.6694 27.2698 5.55469 22.2089 5.55469 15.97C5.55469 9.73111 10.6694 4.67627 16.9746 4.67627ZM23.8812 13.2412L19.3983 14.6778C19.3902 14.6657 19.3841 14.6537 19.3801 14.6417L23.8812 9.0459L18.4082 13.5598L19.8235 9.22622L17.7278 13.3254L16.9139 6.25704L16.2639 13.3374C16.2517 13.3414 16.2396 13.3434 16.2275 13.3434L14.1257 9.22622L15.5653 13.6259L15.5593 13.6319L10.0012 9.0459L14.5205 14.6657L10.0619 13.2412L14.1136 15.2668L7.18263 15.8859L14.314 16.6913C14.3181 16.7113 14.3241 16.7293 14.3322 16.7454L10.0619 18.8791L14.4719 17.4666L10.0012 22.7799L15.6018 18.3682L14.1257 22.8941L16.2761 18.6868L16.9139 25.683L17.7096 18.7589L19.8235 22.8941L18.3656 18.4343L23.8812 22.7799L19.3862 17.4426L23.8812 18.8791L19.617 16.7454C19.621 16.7293 19.6251 16.7133 19.6291 16.6973L26.8152 15.8859L19.8417 15.2608L23.8812 13.2412Z" fill="#1F7298"/>
<g clip-path="url(#clip1_679_7658)">
<path fill-rule="evenodd" clip-rule="evenodd" d="M49.3999 16.5633L52.9395 13.3947H55.717L51.9468 16.6736L54.1026 19.7219H51.5658L49.3999 16.5633ZM45.0781 16.5633L48.2467 13.3947H50.9741L47.615 16.6736L49.7809 19.7219H47.234L45.0781 16.5633ZM63.7789 9.71472C66.9977 9.71472 69.2137 11.7302 69.2137 14.5679C69.2137 18.0774 65.8245 21.0956 61.954 21.0956C58.7653 21.0956 56.5493 19.03 56.5493 16.1823C56.5493 12.6828 59.8583 9.71472 63.7789 9.71472ZM62.2047 18.5587C64.1399 18.5587 66.1053 16.824 66.1053 14.7484C66.1053 13.2042 65.0223 12.2516 63.5483 12.2516C61.583 12.2516 59.6477 13.9161 59.6477 16.0118C59.6477 17.556 60.7106 18.5587 62.2047 18.5587ZM72.1316 12.2115H71.0487L71.53 9.89522H81.1662C81.8581 9.89522 82.199 10.1258 82.199 10.6473C82.199 10.8077 82.1288 11.0784 82.0787 11.3291L80.6849 17.9571C80.6347 18.1577 80.6047 18.288 80.6047 18.3682C80.6047 18.4785 80.6849 18.5988 80.9155 18.5988H81.6274L81.1461 20.9151H78.3586C77.6566 20.9151 77.2756 20.6645 77.2756 20.2032C77.2756 20.0327 77.3257 19.772 77.3959 19.4812L78.7897 12.8533C78.8198 12.7028 78.8599 12.5625 78.8599 12.4722C78.8599 12.3018 78.7596 12.2115 78.5591 12.2115H75.0997L73.2747 20.9151H70.3067L72.1316 12.2115ZM87.8844 12.2115H86.9218C86.6912 12.2115 86.5408 12.3318 86.4906 12.5424L86.3603 13.144H83.7833L84.2546 10.9581C84.415 10.1559 84.7158 9.89522 85.5581 9.89522H93.8807C94.7431 9.89522 95.0238 10.186 95.0238 10.7776C95.0305 10.8979 95.0172 11.035 94.9837 11.1887L94.5626 13.144H91.9856L92.0758 12.773C92.1059 12.6427 92.126 12.5625 92.126 12.4522C92.126 12.2516 91.9254 12.2115 91.755 12.2115H90.8625L89.0376 20.9151H86.0595L87.8844 12.2115ZM96.7886 12.5424C96.8187 12.3318 96.7184 12.2115 96.4878 12.2115H95.7759L96.2572 9.89522H99.0949C99.9372 9.89522 100.238 10.2361 100.078 11.0183L99.2754 14.7785C99.145 15.4704 98.764 16.6135 98.764 16.6135H98.7941C98.7941 16.6135 99.506 15.4904 100.108 14.7785L104.239 9.89522H107.397L105.633 18.2579C105.603 18.4785 105.703 18.5988 105.933 18.5988H106.645L106.164 20.9151H103.326C102.484 20.9151 102.183 20.5742 102.354 19.7921L103.146 16.0118C103.296 15.32 103.677 14.1167 103.677 14.1167H103.647C103.647 14.1167 102.965 15.2899 102.354 16.0118L98.1924 20.9151H95.0238L96.7886 12.5424ZM110.205 12.773C110.235 12.6126 110.255 12.5424 110.255 12.4822C110.255 12.2516 110.075 12.2015 109.894 12.2015H109.242L109.724 9.89522H112.331C113.193 9.89522 113.564 10.186 113.564 10.7676C113.564 10.8946 113.548 11.035 113.514 11.1887L112.882 14.1468H113.283C113.825 14.1468 113.995 14.0365 114.156 13.8058L116.983 9.89522H120.333L117.034 14.3473C116.502 15.0492 116.021 15.3099 116.021 15.3099V15.34C116.021 15.34 116.382 15.6408 116.562 16.2023L117.244 18.2379C117.334 18.4886 117.535 18.5988 117.866 18.5988H118.377L117.896 20.9051H116.201C115.369 20.9051 114.928 20.7848 114.687 20.0929L113.614 16.7939C113.524 16.5433 113.293 16.433 112.852 16.433H112.401L111.469 20.9051H108.5L110.205 12.773ZM119.38 18.5988H119.701C119.952 18.5988 120.042 18.5186 120.192 18.2579L125.196 9.89522H128.284L129.758 18.2579C129.808 18.5186 129.879 18.5988 130.139 18.5988H130.46L129.979 20.9051H128.214C127.342 20.9051 127.021 20.6745 126.921 20.0127L126.71 18.5988H123.251L122.438 20.0127C122.077 20.6645 121.726 20.9051 120.944 20.9051H118.899L119.38 18.5988ZM126.539 16.3728L126.329 14.5378C126.239 13.8459 126.229 12.7129 126.229 12.7129H126.189C126.189 12.7129 125.707 13.8459 125.326 14.5378L124.343 16.3728H126.539ZM136.687 18.5988H136.858C138.462 16.6435 139.144 14.5178 139.565 12.5324L139.625 12.2115H138.532L139.033 9.89522H146.875C147.737 9.89522 148.028 10.1459 148.028 10.7174C148.028 10.8378 147.998 11.0383 147.968 11.1887L146.423 18.5988H146.624C147.306 18.5988 147.587 18.7894 147.587 19.2607C147.587 19.371 147.547 19.6216 147.496 19.8322L146.825 23.071H144.177L144.548 21.4165C144.578 21.2862 144.599 21.1759 144.599 21.1458C144.599 21.0054 144.508 20.9151 144.348 20.9151H138.081C137.85 20.9151 137.69 21.0355 137.64 21.2561L137.259 23.071H134.611L135.323 19.6617C135.494 18.8796 135.855 18.5988 136.687 18.5988ZM143.465 18.6189L144.679 12.783C144.709 12.6427 144.729 12.5625 144.729 12.4522C144.729 12.2516 144.528 12.2115 144.358 12.2115H142.453L142.352 12.7129C142.001 14.4777 141.189 16.9243 139.956 18.6189H143.465ZM156.571 9.71472C159.79 9.71472 162.006 11.7302 162.006 14.5679C162.006 18.0774 158.617 21.0956 154.746 21.0956C151.557 21.0956 149.351 19.03 149.351 16.1823C149.351 12.6828 152.65 9.71472 156.571 9.71472ZM154.997 18.5587C156.942 18.5587 158.897 16.8341 158.897 14.7484C158.897 13.2142 157.814 12.2516 156.34 12.2516C154.375 12.2516 152.44 13.9161 152.44 16.0118C152.44 17.556 153.503 18.5587 154.997 18.5587ZM163.349 19.7921L164.944 12.2115H163.861L164.342 9.89522H171.903C172.544 9.89522 172.915 10.186 172.915 10.7174C172.915 10.8077 172.895 10.928 172.875 11.0183L172.434 13.144H169.777L169.857 12.783C169.877 12.7028 169.907 12.5825 169.907 12.5023C169.907 12.3419 169.837 12.2115 169.606 12.2115H167.912L167.501 14.1668H168.674C170.439 14.1668 172.725 14.6381 172.725 16.9544C172.725 19.5113 170.389 20.9151 167.651 20.9151H164.322C163.68 20.9151 163.309 20.6244 163.309 20.0929C163.309 20.0027 163.329 19.8924 163.349 19.7921ZM168.143 18.6791C169.095 18.6791 169.677 17.9872 169.677 17.2652C169.677 16.7839 169.356 16.4029 168.644 16.4029H167.029L166.648 18.1376C166.618 18.2579 166.598 18.3883 166.598 18.4484C166.598 18.5888 166.689 18.6791 166.919 18.6791H168.143ZM175.964 12.2115H174.881L175.362 9.89522H180.927C182.903 9.89522 184.296 11.1286 184.296 13.0738C184.296 14.8386 183.133 16.3026 181.82 16.9845C181.188 17.3053 180.476 17.5059 179.664 17.5059H177.819L177.107 20.9151H174.129L175.964 12.2115ZM179.423 15.1996C180.456 15.1996 181.268 14.4075 181.268 13.3446C181.268 12.5825 180.807 12.2115 180.105 12.2115H178.942L178.31 15.1996H179.423ZM186.663 12.5524C186.693 12.3318 186.593 12.2115 186.362 12.2115H185.65L186.131 9.89522H188.969C189.821 9.89522 190.122 10.2361 189.952 11.0183L189.15 14.7785C189.019 15.4704 188.638 16.6135 188.638 16.6135H188.668C188.668 16.6135 189.39 15.4904 189.982 14.7785L194.123 9.89522H197.272L195.517 18.268C195.477 18.4785 195.577 18.5988 195.818 18.5988H196.53L196.048 20.9151H193.211C192.358 20.9151 192.057 20.5742 192.228 19.7921L193.02 16.0118C193.171 15.32 193.552 14.1167 193.552 14.1167H193.521C193.521 14.1167 192.84 15.2899 192.228 16.0118L188.077 20.9151H184.898L186.663 12.5524ZM201.744 15.3901L200.37 12.5624C200.23 12.2917 200.069 12.2115 199.668 12.2115H199.217L199.698 9.90523H201.293C202.075 9.90523 202.596 10.0556 202.837 10.6372L203.438 12.011C203.739 12.6928 203.9 13.3947 203.9 13.3947H203.94C203.94 13.3947 204.351 12.7229 204.932 12.011L206.045 10.6372C206.427 10.1659 206.808 9.90523 207.56 9.90523H209.655L209.174 12.2115H208.552C208.272 12.2115 208.111 12.2917 207.891 12.5324L205.263 15.5105L207.77 20.9151H204.551L203.609 18.7593C203.368 18.2178 203.128 17.4157 203.128 17.4157H203.087C203.087 17.4157 202.626 18.1276 202.115 18.7593L200.33 20.9151H196.981L201.744 15.3901ZM214.308 19.4913L215.692 12.8633C215.722 12.7429 215.772 12.4923 215.772 12.4522C215.772 12.3118 215.662 12.2215 215.461 12.2215H214.739L215.24 9.90523H218.078C218.78 9.90523 219.091 10.1359 219.091 10.6473C219.091 10.7977 219.011 11.1887 218.981 11.3391L217.597 17.9672C217.567 18.0975 217.517 18.3381 217.517 18.3983C217.517 18.4986 217.637 18.6089 217.838 18.6089H221.508L223.332 9.90523H226.301L224.476 18.6089H224.786C225.468 18.6089 225.759 18.7994 225.759 19.2707C225.759 19.4111 225.689 19.762 225.639 19.9826L224.987 23.081H222.42L222.731 21.5669C222.761 21.4265 222.811 21.216 222.811 21.1357C222.811 21.0154 222.731 20.9252 222.57 20.9252H215.22C214.529 20.9252 214.198 20.6645 214.198 20.2433C214.198 20.0328 214.278 19.6718 214.308 19.4913ZM227.393 18.6089H228.627L229.971 12.2215H228.727L229.208 9.90523H234.503L234.022 12.2215H232.778L231.434 18.6089H232.678L232.197 20.9252H226.912L227.393 18.6089ZM236.508 12.783C236.548 12.6326 236.558 12.5624 236.558 12.4622C236.558 12.2616 236.358 12.2115 236.197 12.2115H235.546L236.027 9.90523H238.634C239.506 9.90523 239.867 10.196 239.867 10.7776C239.867 10.9046 239.851 11.045 239.817 11.1988L239.155 14.3072H243.176L243.868 11.0283C244.049 10.176 244.43 9.90523 245.232 9.90523H248.15L247.669 12.2115H246.927C246.726 12.2115 246.576 12.3218 246.525 12.5524L244.771 20.9151H241.793L242.695 16.6034H238.674L237.772 20.9151H234.804L236.508 12.783ZM255.57 16.453L253.414 13.4048H255.951L258.107 16.5633L254.938 19.7319H252.211L255.57 16.453ZM251.258 16.453L249.092 13.4048H251.639L253.795 16.5633L250.256 19.7319H247.488L251.258 16.453Z" fill="#1F7298"/>
</g>
</g>
<defs>
<clipPath id="clip0_679_7658">
<rect width="257.111" height="32" fill="white" transform="translate(0.945312)"/>
</clipPath>
<clipPath id="clip1_679_7658">
<rect width="213" height="13" fill="white" transform="translate(45.0547 9.5)"/>
</clipPath>
</defs>
</svg>
