<svg width="198" height="44" viewBox="0 0 198 44" fill="none" xmlns="http://www.w3.org/2000/svg">
<g clip-path="url(#clip0_679_29343)">
<path d="M43.9993 0H22.041L39.4389 4.90082L43.9993 22.1157V0Z" fill="#1F7298"/>
<path d="M0 43.9999H21.9666L4.56037 39.0991L0 21.8843V43.9999Z" fill="#1F7298"/>
<path fill-rule="evenodd" clip-rule="evenodd" d="M22.0422 6.42981C30.712 6.42981 37.7363 13.3802 37.7363 21.9587C37.7363 30.5372 30.712 37.4959 22.0422 37.4959C13.3725 37.4959 6.33984 30.5372 6.33984 21.9587C6.33984 13.3802 13.3725 6.42981 22.0422 6.42981ZM31.5388 18.2066L25.3748 20.1819C25.3637 20.1653 25.3553 20.1488 25.3498 20.1323L31.5388 12.4381L24.0134 18.6447L25.9595 12.686L23.0779 18.3224L21.9587 8.60336L21.065 18.3389C21.0483 18.3444 21.0316 18.3471 21.0149 18.3471L18.125 12.686L20.1045 18.7356L20.0961 18.7438L12.4538 12.4381L18.6679 20.1653L12.5373 18.2066L18.1083 20.9918L8.57826 21.843L18.3839 22.9504C18.3895 22.978 18.3978 23.0028 18.409 23.0248L12.5373 25.9587L18.6011 24.0166L12.4538 31.3223L20.1546 25.2562L18.125 31.4793L21.0817 25.6942L21.9587 35.314L23.0529 25.7934L25.9595 31.4793L23.9549 25.3471L31.5388 31.3223L25.3581 23.9835L31.5388 25.9587L25.6755 23.0248C25.6811 23.0028 25.6866 22.9807 25.6922 22.9587L35.573 21.843L25.9845 20.9835L31.5388 18.2066Z" fill="#1F7298"/>
<g clip-path="url(#clip1_679_29343)">
<path fill-rule="evenodd" clip-rule="evenodd" d="M62.002 8.39376L66.0283 4.78942H69.1878L64.8991 8.51921L67.3514 11.9867H64.4657L62.002 8.39376ZM57.0859 8.39376L60.6903 4.78942H63.7927L59.9717 8.51921L62.4354 11.9867H59.5382L57.0859 8.39376ZM78.3583 0.603394C82.0197 0.603394 84.5404 2.89601 84.5404 6.12393C84.5404 10.1161 80.6851 13.5493 76.2824 13.5493C72.6553 13.5493 70.1345 11.1997 70.1345 7.96032C70.1345 3.9796 73.8985 0.603394 78.3583 0.603394ZM76.5675 10.6636C78.7689 10.6636 81.0045 8.69031 81.0045 6.32925C81.0045 4.57271 79.7727 3.48914 78.096 3.48914C75.8604 3.48914 73.659 5.38255 73.659 7.76643C73.659 9.52296 74.868 10.6636 76.5675 10.6636ZM87.8596 3.4435H86.6277L87.1752 0.808709H98.1365C98.9235 0.808709 99.3113 1.07105 99.3113 1.66417C99.3113 1.84666 99.2314 2.15461 99.1744 2.43976L97.589 9.9792C97.5319 10.2073 97.4977 10.3556 97.4977 10.4469C97.4977 10.5723 97.589 10.7092 97.8513 10.7092H98.6611L98.1137 13.344H94.9428C94.1443 13.344 93.7109 13.0588 93.7109 12.5342C93.7109 12.3402 93.7679 12.0437 93.8478 11.7129L95.4332 4.17351C95.4674 4.00241 95.5131 3.84272 95.5131 3.74007C95.5131 3.54617 95.399 3.4435 95.1709 3.4435H91.2358L89.1599 13.344H85.7837L87.8596 3.4435ZM105.779 3.4435H104.684C104.421 3.4435 104.25 3.58038 104.193 3.81991L104.045 4.50427H101.113L101.65 2.01774C101.832 1.10525 102.174 0.808709 103.132 0.808709H112.599C113.58 0.808709 113.9 1.13946 113.9 1.81242C113.907 1.9493 113.892 2.10519 113.854 2.28008L113.375 4.50427H110.444L110.546 4.08225C110.581 3.93397 110.603 3.84273 110.603 3.71726C110.603 3.48914 110.375 3.4435 110.181 3.4435H109.166L107.09 13.344H103.703L105.779 3.4435ZM115.907 3.81991C115.941 3.58038 115.827 3.4435 115.565 3.4435H114.755L115.303 0.808709H118.531C119.489 0.808709 119.831 1.19651 119.648 2.08619L118.736 6.36347C118.588 7.15049 118.154 8.45079 118.154 8.45079H118.188C118.188 8.45079 118.998 7.1733 119.683 6.36347L124.382 0.808709H127.975L125.967 10.3214C125.933 10.5723 126.047 10.7092 126.31 10.7092H127.119L126.572 13.344H123.344C122.386 13.344 122.044 12.9562 122.238 12.0665L123.139 7.76643C123.31 6.97941 123.743 5.61066 123.743 5.61066H123.709C123.709 5.61066 122.933 6.94519 122.238 7.76643L117.504 13.344H113.9L115.907 3.81991ZM131.169 4.08225C131.203 3.89975 131.226 3.8199 131.226 3.75146C131.226 3.48912 131.02 3.43211 130.815 3.43211H130.074L130.621 0.808709H133.587C134.568 0.808709 134.99 1.13948 134.99 1.80103C134.99 1.94551 134.971 2.10519 134.933 2.28008L134.214 5.64488H134.67C135.286 5.64488 135.48 5.51943 135.663 5.25709L138.879 0.808709H142.689L138.936 5.873C138.332 6.67143 137.784 6.968 137.784 6.968V7.0022C137.784 7.0022 138.195 7.34439 138.4 7.98313L139.176 10.2986C139.278 10.5837 139.506 10.7092 139.883 10.7092H140.464L139.917 13.3326H137.989C137.043 13.3326 136.541 13.1957 136.267 12.4087L135.047 8.65608C134.944 8.37093 134.682 8.24548 134.18 8.24548H133.666L132.606 13.3326H129.229L131.169 4.08225ZM141.605 10.7092H141.97C142.255 10.7092 142.358 10.6179 142.529 10.3214L148.221 0.808709H151.734L153.41 10.3214C153.467 10.6179 153.547 10.7092 153.844 10.7092H154.209L153.661 13.3326H151.654C150.662 13.3326 150.297 13.0702 150.182 12.3174L149.943 10.7092H146.008L145.084 12.3174C144.673 13.0588 144.274 13.3326 143.384 13.3326H141.058L141.605 10.7092ZM149.749 8.17703L149.509 6.08971C149.407 5.30269 149.395 4.0138 149.395 4.0138H149.35C149.35 4.0138 148.802 5.30269 148.369 6.08971L147.251 8.17703H149.749ZM161.292 10.7092H161.486C163.311 8.48499 164.086 6.0669 164.566 3.80849L164.634 3.4435H163.391L163.961 0.808709H172.881C173.862 0.808709 174.192 1.09386 174.192 1.744C174.192 1.88088 174.158 2.10899 174.124 2.28008L172.367 10.7092H172.595C173.371 10.7092 173.69 10.9259 173.69 11.462C173.69 11.5875 173.645 11.8726 173.588 12.1121L172.824 15.7963H169.812L170.234 13.9143C170.269 13.766 170.291 13.6406 170.291 13.6063C170.291 13.4467 170.189 13.344 170.006 13.344H162.877C162.615 13.344 162.433 13.4809 162.376 13.7318L161.942 15.7963H158.931L159.741 11.9182C159.935 11.0286 160.345 10.7092 161.292 10.7092ZM169.003 10.732L170.383 4.09364C170.417 3.93396 170.44 3.84273 170.44 3.71726C170.44 3.48914 170.212 3.4435 170.018 3.4435H167.85L167.736 4.0138C167.337 6.02128 166.413 8.80438 165.01 10.732H169.003ZM183.91 0.603394C187.572 0.603394 190.092 2.89601 190.092 6.12393C190.092 10.1161 186.237 13.5493 181.834 13.5493C178.207 13.5493 175.698 11.1997 175.698 7.96032C175.698 3.9796 179.45 0.603394 183.91 0.603394ZM182.12 10.6636C184.332 10.6636 186.556 8.70171 186.556 6.32925C186.556 4.58411 185.325 3.48914 183.648 3.48914C181.412 3.48914 179.211 5.38255 179.211 7.76643C179.211 9.52296 180.42 10.6636 182.12 10.6636ZM191.621 12.0665L193.434 3.4435H192.202L192.75 0.808709H201.35C202.08 0.808709 202.502 1.13948 202.502 1.744C202.502 1.84666 202.479 1.98353 202.457 2.08619L201.955 4.50427H198.932L199.023 4.09364C199.046 4.00239 199.08 3.86554 199.08 3.77429C199.08 3.5918 199.001 3.4435 198.738 3.4435H196.811L196.343 5.66769H197.677C199.685 5.66769 202.285 6.20378 202.285 8.83859C202.285 11.7471 199.628 13.344 196.514 13.344H192.727C191.997 13.344 191.575 13.0132 191.575 12.4087C191.575 12.306 191.598 12.1806 191.621 12.0665ZM197.073 10.8004C198.156 10.8004 198.818 10.0134 198.818 9.19219C198.818 8.6447 198.453 8.21125 197.643 8.21125H195.807L195.373 10.1845C195.339 10.3214 195.316 10.4696 195.316 10.5381C195.316 10.6978 195.419 10.8004 195.681 10.8004H197.073ZM205.97 3.4435H204.738L205.285 0.808709H211.616C213.863 0.808709 215.448 2.21165 215.448 4.42444C215.448 6.43191 214.125 8.0972 212.631 8.87281C211.912 9.23781 211.102 9.46592 210.178 9.46592H208.08L207.27 13.344H203.882L205.97 3.4435ZM209.905 6.84252C211.08 6.84252 212.003 5.94144 212.003 4.73239C212.003 3.86553 211.479 3.4435 210.68 3.4435H209.357L208.639 6.84252H209.905ZM218.14 3.83132C218.174 3.58039 218.06 3.4435 217.798 3.4435H216.988L217.535 0.808709H220.763C221.733 0.808709 222.075 1.19651 221.881 2.08619L220.969 6.36347C220.82 7.15049 220.387 8.45079 220.387 8.45079H220.421C220.421 8.45079 221.242 7.1733 221.915 6.36347L226.626 0.808709H230.208L228.212 10.3328C228.166 10.5723 228.28 10.7092 228.554 10.7092H229.364L228.816 13.344H225.588C224.619 13.344 224.276 12.9562 224.47 12.0665L225.371 7.76643C225.543 6.97941 225.976 5.61066 225.976 5.61066H225.942C225.942 5.61066 225.166 6.94519 224.47 7.76643L219.748 13.344H216.132L218.14 3.83132ZM235.295 7.05923L233.732 3.84271C233.572 3.53475 233.39 3.4435 232.934 3.4435H232.42L232.968 0.820098H234.781C235.671 0.820098 236.264 0.991195 236.538 1.65275L237.222 3.21538C237.565 3.99099 237.747 4.78942 237.747 4.78942H237.793C237.793 4.78942 238.26 4.02521 238.922 3.21538L240.188 1.65275C240.621 1.11666 241.055 0.820098 241.91 0.820098H244.294L243.747 3.4435H243.039C242.72 3.4435 242.538 3.53474 242.287 3.80849L239.298 7.19612L242.15 13.344H238.488L237.416 10.8917C237.143 10.2758 236.869 9.36328 236.869 9.36328H236.823C236.823 9.36328 236.298 10.1731 235.717 10.8917L233.686 13.344H229.877L235.295 7.05923ZM249.587 11.7243L251.161 4.1849C251.195 4.04802 251.252 3.76289 251.252 3.71726C251.252 3.55758 251.126 3.45492 250.898 3.45492H250.077L250.647 0.820098H253.875C254.674 0.820098 255.027 1.08245 255.027 1.66417C255.027 1.83526 254.936 2.28008 254.902 2.45118L253.328 9.99061C253.294 10.1389 253.236 10.4126 253.236 10.4811C253.236 10.5951 253.373 10.7206 253.602 10.7206H257.776L259.852 0.820098H263.228L261.152 10.7206H261.506C262.282 10.7206 262.612 10.9373 262.612 11.4734C262.612 11.6331 262.532 12.0323 262.475 12.2832L261.734 15.8077H258.814L259.168 14.0854C259.202 13.9257 259.259 13.6862 259.259 13.5949C259.259 13.4581 259.168 13.3554 258.985 13.3554H250.625C249.837 13.3554 249.461 13.0588 249.461 12.5798C249.461 12.3403 249.552 11.9296 249.587 11.7243ZM264.471 10.7206H265.874L267.403 3.45492H265.989L266.536 0.820098H272.558L272.011 3.45492H270.597L269.068 10.7206H270.483L269.935 13.3554H263.924L264.471 10.7206ZM274.84 4.09364C274.885 3.92255 274.897 3.84271 274.897 3.72865C274.897 3.50053 274.669 3.4435 274.486 3.4435H273.745L274.292 0.820098H277.258C278.25 0.820098 278.661 1.15087 278.661 1.81242C278.661 1.9569 278.642 2.11661 278.604 2.2915L277.851 5.82739H282.425L283.212 2.09758C283.417 1.12806 283.85 0.820098 284.763 0.820098H288.082L287.535 3.4435H286.691C286.462 3.4435 286.291 3.56898 286.234 3.83132L284.238 13.344H280.851L281.877 8.43937H277.303L276.277 13.344H272.901L274.84 4.09364ZM296.523 8.26828L294.07 4.80084H296.956L299.408 8.39376L295.804 11.9981H292.702L296.523 8.26828ZM291.618 8.26828L289.154 4.80084H292.051L294.504 8.39376L290.477 11.9981H287.329L291.618 8.26828Z" fill="#1F7298"/>
</g>
<g clip-path="url(#clip2_679_29343)">
<path fill-rule="evenodd" clip-rule="evenodd" d="M-40.541 36.8678L-36.5147 33.2634H-33.3552L-37.6439 36.9932L-35.1915 40.4607H-38.0773L-40.541 36.8678ZM-45.457 36.8678L-41.8527 33.2634H-38.7502L-42.5713 36.9932L-40.1076 40.4607H-43.0047L-45.457 36.8678ZM-24.1847 29.0774C-20.5233 29.0774 -18.0026 31.37 -18.0026 34.5979C-18.0026 38.5901 -21.8578 42.0233 -26.2606 42.0233C-29.8877 42.0233 -32.4085 39.6737 -32.4085 36.4343C-32.4085 32.4536 -28.6445 29.0774 -24.1847 29.0774ZM-25.9754 39.1376C-23.7741 39.1376 -21.5385 37.1643 -21.5385 34.8032C-21.5385 33.0467 -22.7703 31.9631 -24.447 31.9631C-26.6826 31.9631 -28.884 33.8566 -28.884 36.2404C-28.884 37.997 -27.6749 39.1376 -25.9754 39.1376ZM-14.6834 31.9175H-15.9153L-15.3678 29.2827H-4.4065C-3.61948 29.2827 -3.23168 29.545 -3.23168 30.1382C-3.23168 30.3207 -3.31152 30.6286 -3.36855 30.9138L-4.954 38.4532C-5.01103 38.6813 -5.04525 38.8296 -5.04525 38.9209C-5.04525 39.0463 -4.954 39.1832 -4.69166 39.1832H-3.88182L-4.42932 41.818H-7.60022C-8.39864 41.818 -8.83207 41.5328 -8.83207 41.0082C-8.83207 40.8142 -8.77504 40.5177 -8.6952 40.1869L-7.10975 32.6475C-7.07553 32.4764 -7.0299 32.3167 -7.0299 32.2141C-7.0299 32.0202 -7.14397 31.9175 -7.37209 31.9175H-11.3072L-13.3831 41.818H-16.7593L-14.6834 31.9175ZM3.23558 31.9175H2.14059C1.87825 31.9175 1.70716 32.0544 1.65012 32.2939L1.50185 32.9783H-1.42952L-0.893433 30.4917C-0.710934 29.5792 -0.368752 29.2827 0.589363 29.2827H10.0564C11.0373 29.2827 11.3567 29.6135 11.3567 30.2864C11.3643 30.4233 11.3491 30.5792 11.3111 30.7541L10.832 32.9783H7.90067L8.00332 32.5563C8.03754 32.408 8.06035 32.3167 8.06035 32.1913C8.06035 31.9631 7.83223 31.9175 7.63832 31.9175H6.62318L4.54728 41.818H1.15967L3.23558 31.9175ZM13.3642 32.2939C13.3984 32.0544 13.2843 31.9175 13.022 31.9175H12.2122L12.7597 29.2827H15.9876C16.9457 29.2827 17.2879 29.6705 17.1054 30.5602L16.1929 34.8375C16.0446 35.6245 15.6112 36.9248 15.6112 36.9248H15.6454C15.6454 36.9248 16.4552 35.6473 17.1396 34.8375L21.8389 29.2827H25.4318L23.4244 38.7954C23.3901 39.0463 23.5042 39.1832 23.7665 39.1832H24.5764L24.0289 41.818H20.801C19.8428 41.818 19.5007 41.4302 19.6946 40.5405L20.5956 36.2404C20.7667 35.4534 21.2002 34.0847 21.2002 34.0847H21.1659C21.1659 34.0847 20.3903 35.4192 19.6946 36.2404L14.961 41.818H11.3567L13.3642 32.2939ZM28.6255 32.5563C28.6598 32.3738 28.6826 32.2939 28.6826 32.2255C28.6826 31.9631 28.4773 31.9061 28.2719 31.9061H27.5306L28.078 29.2827H31.0436C32.0246 29.2827 32.4466 29.6135 32.4466 30.275C32.4466 30.4195 32.4276 30.5792 32.3895 30.7541L31.671 34.1189H32.1272C32.7431 34.1189 32.937 33.9934 33.1195 33.7311L36.336 29.2827H40.1457L36.3931 34.347C35.7886 35.1454 35.2411 35.442 35.2411 35.442V35.4762C35.2411 35.4762 35.6517 35.8184 35.857 36.4571L36.6326 38.7726C36.7353 39.0577 36.9634 39.1832 37.3398 39.1832H37.9215L37.374 41.8066H35.4464C34.4997 41.8066 33.9978 41.6697 33.7241 40.8827L32.5036 37.1301C32.401 36.8449 32.1386 36.7195 31.6367 36.7195H31.1235L30.0627 41.8066H26.6865L28.6255 32.5563ZM39.0621 39.1832H39.4271C39.7123 39.1832 39.8149 39.0919 39.986 38.7954L45.6776 29.2827H49.1907L50.8674 38.7954C50.9244 39.0919 51.0043 39.1832 51.3009 39.1832H51.6658L51.1183 41.8066H49.1109C48.1185 41.8066 47.7536 41.5442 47.6395 40.7914L47.4 39.1832H43.4649L42.541 40.7914C42.1303 41.5328 41.7311 41.8066 40.8415 41.8066H38.5146L39.0621 39.1832ZM47.2061 36.651L46.9665 34.5637C46.8639 33.7767 46.8525 32.4878 46.8525 32.4878H46.8068C46.8068 32.4878 46.2594 33.7767 45.8259 34.5637L44.7081 36.651H47.2061ZM58.749 39.1832H58.9429C60.7679 36.959 61.5435 34.5409 62.0226 32.2825L62.091 31.9175H60.8477L61.4181 29.2827H70.3376C71.3185 29.2827 71.6493 29.5679 71.6493 30.218C71.6493 30.3549 71.6151 30.583 71.5809 30.7541L69.8243 39.1832H70.0525C70.8281 39.1832 71.1474 39.3999 71.1474 39.936C71.1474 40.0615 71.1018 40.3466 71.0448 40.5861L70.2806 44.2703H67.2694L67.6914 42.3883C67.7256 42.24 67.7484 42.1146 67.7484 42.0803C67.7484 41.9207 67.6458 41.818 67.4633 41.818H60.3345C60.0721 41.818 59.8896 41.9549 59.8326 42.2058L59.3992 44.2703H56.388L57.1978 40.3922C57.3917 39.5026 57.8023 39.1832 58.749 39.1832ZM66.4595 39.206L67.8397 32.5676C67.8739 32.408 67.8967 32.3167 67.8967 32.1913C67.8967 31.9631 67.6686 31.9175 67.4747 31.9175H65.3075L65.1935 32.4878C64.7943 34.4953 63.8703 37.2784 62.4674 39.206H66.4595ZM81.3673 29.0774C85.0287 29.0774 87.5494 31.37 87.5494 34.5979C87.5494 38.5901 83.6941 42.0233 79.2914 42.0233C75.6642 42.0233 73.1549 39.6737 73.1549 36.4343C73.1549 32.4536 76.9075 29.0774 81.3673 29.0774ZM79.5765 39.1376C81.7893 39.1376 84.0135 37.1757 84.0135 34.8032C84.0135 33.0581 82.7817 31.9631 81.105 31.9631C78.8694 31.9631 76.668 33.8566 76.668 36.2404C76.668 37.997 77.877 39.1376 79.5765 39.1376ZM89.0778 40.5405L90.8914 31.9175H89.6595L90.207 29.2827H98.8072C99.5372 29.2827 99.9592 29.6135 99.9592 30.218C99.9592 30.3207 99.9364 30.4575 99.9136 30.5602L99.4117 32.9783H96.3891L96.4804 32.5676C96.5032 32.4764 96.5374 32.3395 96.5374 32.2483C96.5374 32.0658 96.4576 31.9175 96.1952 31.9175H94.2676L93.7999 34.1417H95.1345C97.1419 34.1417 99.7425 34.6778 99.7425 37.3126C99.7425 40.2211 97.0849 41.818 93.971 41.818H90.1842C89.4542 41.818 89.0322 41.4872 89.0322 40.8827C89.0322 40.78 89.055 40.6546 89.0778 40.5405ZM94.5299 39.2744C95.6135 39.2744 96.2751 38.4874 96.2751 37.6662C96.2751 37.1187 95.9101 36.6853 95.1003 36.6853H93.2639L92.8304 38.6585C92.7962 38.7954 92.7734 38.9436 92.7734 39.0121C92.7734 39.1718 92.8761 39.2744 93.1384 39.2744H94.5299ZM103.427 31.9175H102.195L102.742 29.2827H109.073C111.32 29.2827 112.905 30.6857 112.905 32.8984C112.905 34.9059 111.582 36.5712 110.088 37.3468C109.369 37.7118 108.559 37.9399 107.636 37.9399H105.537L104.727 41.818H101.339L103.427 31.9175ZM107.362 35.3165C108.537 35.3165 109.46 34.4154 109.46 33.2064C109.46 32.3395 108.936 31.9175 108.137 31.9175H106.814L106.096 35.3165H107.362ZM115.597 32.3053C115.631 32.0544 115.517 31.9175 115.255 31.9175H114.445L114.992 29.2827H118.22C119.19 29.2827 119.532 29.6705 119.338 30.5602L118.426 34.8375C118.277 35.6245 117.844 36.9248 117.844 36.9248H117.878C117.878 36.9248 118.699 35.6473 119.372 34.8375L124.083 29.2827H127.665L125.669 38.8068C125.623 39.0463 125.737 39.1832 126.011 39.1832H126.821L126.273 41.818H123.045C122.076 41.818 121.733 41.4302 121.927 40.5405L122.828 36.2404C123 35.4534 123.433 34.0847 123.433 34.0847H123.399C123.399 34.0847 122.623 35.4192 121.927 36.2404L117.205 41.818H113.59L115.597 32.3053ZM132.752 35.5332L131.189 32.3167C131.029 32.0087 130.847 31.9175 130.391 31.9175H129.877L130.425 29.2941H132.238C133.128 29.2941 133.721 29.4652 133.995 30.1267L134.679 31.6894C135.022 32.465 135.204 33.2634 135.204 33.2634H135.25C135.25 33.2634 135.717 32.4992 136.379 31.6894L137.645 30.1267C138.078 29.5907 138.512 29.2941 139.367 29.2941H141.751L141.204 31.9175H140.496C140.177 31.9175 139.995 32.0087 139.744 32.2825L136.755 35.6701L139.607 41.818H135.945L134.873 39.3657C134.6 38.7498 134.326 37.8373 134.326 37.8373H134.28C134.28 37.8373 133.755 38.6471 133.174 39.3657L131.143 41.818H127.334L132.752 35.5332ZM147.044 40.1983L148.618 32.6589C148.652 32.522 148.709 32.2369 148.709 32.1913C148.709 32.0316 148.583 31.9289 148.355 31.9289H147.534L148.104 29.2941H151.332C152.131 29.2941 152.484 29.5565 152.484 30.1382C152.484 30.3093 152.393 30.7541 152.359 30.9252L150.785 38.4646C150.751 38.6129 150.694 38.8866 150.694 38.9551C150.694 39.0691 150.83 39.1946 151.059 39.1946H155.233L157.309 29.2941H160.685L158.609 39.1946H158.963C159.739 39.1946 160.069 39.4113 160.069 39.9474C160.069 40.1071 159.989 40.5063 159.932 40.7572L159.191 44.2817H156.271L156.625 42.5594C156.659 42.3997 156.716 42.1602 156.716 42.0689C156.716 41.932 156.625 41.8294 156.442 41.8294H148.082C147.295 41.8294 146.918 41.5328 146.918 41.0538C146.918 40.8143 147.009 40.4036 147.044 40.1983ZM161.929 39.1946H163.331L164.86 31.9289H163.446L163.993 29.2941H170.015L169.468 31.9289H168.054L166.525 39.1946H167.94L167.392 41.8294H161.381L161.929 39.1946ZM172.297 32.5676C172.342 32.3965 172.354 32.3167 172.354 32.2027C172.354 31.9745 172.126 31.9175 171.943 31.9175H171.202L171.749 29.2941H174.715C175.707 29.2941 176.118 29.6249 176.118 30.2864C176.118 30.4309 176.099 30.5906 176.061 30.7655L175.308 34.3014H179.882L180.669 30.5716C180.874 29.6021 181.307 29.2941 182.22 29.2941H185.539L184.992 31.9175H184.148C183.919 31.9175 183.748 32.043 183.691 32.3053L181.695 41.818H178.308L179.334 36.9134H174.76L173.734 41.818H170.358L172.297 32.5676ZM193.98 36.7423L191.527 33.2748H194.413L196.865 36.8678L193.261 40.4721H190.159L193.98 36.7423ZM189.075 36.7423L186.611 33.2748H189.508L191.961 36.8678L187.934 40.4721H184.786L189.075 36.7423Z" fill="#1F7298"/>
</g>
</g>
<defs>
<clipPath id="clip0_679_29343">
<rect width="197.32" height="44" fill="white"/>
</clipPath>
<clipPath id="clip1_679_29343">
<rect width="98.2326" height="15.3488" fill="white" transform="translate(56.1113)"/>
</clipPath>
<clipPath id="clip2_679_29343">
<rect width="141.209" height="15.3488" fill="white" transform="translate(56.1113 28.6511)"/>
</clipPath>
</defs>
</svg>
