<svg width="258" height="32" viewBox="0 0 258 32" fill="none" xmlns="http://www.w3.org/2000/svg">
<g clip-path="url(#clip0_813_24456)">
<path d="M32.0009 0H16.0312L28.6843 3.56423L32.0009 16.0841V0Z" fill="#626261"/>
<path d="M0 32.0001H15.9757L3.31664 28.4359L0 15.916V32.0001Z" fill="#626261"/>
<path fill-rule="evenodd" clip-rule="evenodd" d="M16.0313 4.67578C22.3365 4.67578 27.4451 9.73063 27.4451 15.9695C27.4451 22.2084 22.3365 27.2693 16.0313 27.2693C9.726 27.2693 4.61133 22.2084 4.61133 15.9695C4.61133 9.73063 9.726 4.67578 16.0313 4.67578ZM22.9379 13.2408L18.4549 14.6773C18.4468 14.6653 18.4408 14.6532 18.4367 14.6412L22.9379 9.04542L17.4648 13.5593L18.8802 9.22573L16.7845 13.3249L15.9705 6.25655L15.3205 13.3369C15.3084 13.3409 15.2962 13.3429 15.2841 13.3429L13.1823 9.22573L14.622 13.6254L14.6159 13.6314L9.05781 9.04542L13.5772 14.6652L9.11855 13.2408L13.1702 15.2663L6.23927 15.8854L13.3706 16.6908C13.3747 16.7108 13.3808 16.7289 13.3889 16.7449L9.11855 18.8786L13.5286 17.4661L9.05781 22.7794L14.6584 18.3677L13.1823 22.8936L15.3327 18.6863L15.9705 25.6825L16.7663 18.7584L18.8802 22.8936L17.4223 18.4338L22.9379 22.7794L18.4428 17.4421L22.9379 18.8786L18.6736 16.7449C18.6777 16.7289 18.6817 16.7128 18.6858 16.6968L25.8718 15.8854L18.8984 15.2603L22.9379 13.2408Z" fill="#626261"/>
<g clip-path="url(#clip1_813_24456)">
<path fill-rule="evenodd" clip-rule="evenodd" d="M48.4565 16.5635L51.9961 13.3948H54.7737L51.0034 16.6737L53.1593 19.722H50.6224L48.4565 16.5635ZM44.1348 16.5635L47.3034 13.3948H50.0308L46.6717 16.6737L48.8375 19.722H46.2906L44.1348 16.5635ZM62.8356 9.71484C66.0543 9.71484 68.2703 11.7303 68.2703 14.568C68.2703 18.0776 64.8811 21.0958 61.0106 21.0958C57.822 21.0958 55.6059 19.0302 55.6059 16.1824C55.6059 12.6829 58.9149 9.71484 62.8356 9.71484ZM61.2613 18.5589C63.1966 18.5589 65.1619 16.8242 65.1619 14.7485C65.1619 13.2043 64.079 12.2517 62.605 12.2517C60.6396 12.2517 58.7044 13.9163 58.7044 16.012C58.7044 17.5562 59.7672 18.5589 61.2613 18.5589ZM71.1883 12.2116H70.1053L70.5866 9.89534H80.2228C80.9147 9.89534 81.2556 10.126 81.2556 10.6474C81.2556 10.8078 81.1854 11.0785 81.1353 11.3292L79.7415 17.9572C79.6914 18.1578 79.6613 18.2881 79.6613 18.3684C79.6613 18.4787 79.7415 18.599 79.9721 18.599H80.6841L80.2028 20.9153H77.4152C76.7133 20.9153 76.3323 20.6646 76.3323 20.2033C76.3323 20.0329 76.3824 19.7722 76.4526 19.4814L77.8464 12.8534C77.8764 12.703 77.9166 12.5626 77.9166 12.4723C77.9166 12.3019 77.8163 12.2116 77.6157 12.2116H74.1563L72.3314 20.9153H69.3633L71.1883 12.2116ZM86.9411 12.2116H85.9785C85.7478 12.2116 85.5974 12.332 85.5473 12.5425L85.4169 13.1442H82.8399L83.3112 10.9582C83.4716 10.156 83.7725 9.89534 84.6148 9.89534H92.9374C93.7997 9.89534 94.0805 10.1861 94.0805 10.7777C94.0872 10.898 94.0738 11.0351 94.0404 11.1888L93.6192 13.1442H91.0422L91.1325 12.7732C91.1625 12.6428 91.1826 12.5626 91.1826 12.4523C91.1826 12.2517 90.9821 12.2116 90.8116 12.2116H89.9192L88.0942 20.9153H85.1161L86.9411 12.2116ZM95.8453 12.5425C95.8754 12.332 95.7751 12.2116 95.5445 12.2116H94.8325L95.3138 9.89534H98.1515C98.9938 9.89534 99.2946 10.2363 99.1342 11.0184L98.332 14.7786C98.2017 15.4705 97.8206 16.6136 97.8206 16.6136H97.8507C97.8507 16.6136 98.5627 15.4905 99.1643 14.7786L103.296 9.89534H106.454L104.689 18.2581C104.659 18.4787 104.759 18.599 104.99 18.599H105.702L105.221 20.9153H102.383C101.541 20.9153 101.24 20.5744 101.41 19.7922L102.203 16.012C102.353 15.3201 102.734 14.1168 102.734 14.1168H102.704C102.704 14.1168 102.022 15.29 101.41 16.012L97.2491 20.9153H94.0805L95.8453 12.5425ZM109.262 12.7732C109.292 12.6127 109.312 12.5425 109.312 12.4823C109.312 12.2517 109.131 12.2016 108.951 12.2016H108.299L108.78 9.89534H111.388C112.25 9.89534 112.621 10.1861 112.621 10.7677C112.621 10.8947 112.604 11.0351 112.571 11.1888L111.939 14.1469H112.34C112.882 14.1469 113.052 14.0366 113.212 13.806L116.04 9.89534H119.389L116.09 14.3474C115.559 15.0493 115.078 15.3101 115.078 15.3101V15.3401C115.078 15.3401 115.439 15.6409 115.619 16.2025L116.301 18.238C116.391 18.4887 116.592 18.599 116.923 18.599H117.434L116.953 20.9052H115.258C114.426 20.9052 113.985 20.7849 113.744 20.093L112.671 16.7941C112.581 16.5434 112.35 16.4331 111.909 16.4331H111.458L110.525 20.9052H107.557L109.262 12.7732ZM118.437 18.599H118.758C119.008 18.599 119.098 18.5188 119.249 18.2581L124.252 9.89534H127.341L128.815 18.2581C128.865 18.5188 128.935 18.599 129.196 18.599H129.517L129.035 20.9052H127.271C126.398 20.9052 126.077 20.6746 125.977 20.0128L125.767 18.599H122.307L121.495 20.0128C121.134 20.6646 120.783 20.9052 120.001 20.9052H117.955L118.437 18.599ZM125.596 16.3729L125.386 14.5379C125.295 13.8461 125.285 12.713 125.285 12.713H125.245C125.245 12.713 124.764 13.8461 124.383 14.5379L123.4 16.3729H125.596ZM135.744 18.599H135.914C137.519 16.6437 138.2 14.5179 138.621 12.5325L138.682 12.2116H137.589L138.09 9.89534H145.931C146.794 9.89534 147.084 10.146 147.084 10.7176C147.084 10.8379 147.054 11.0384 147.024 11.1888L145.48 18.599H145.681C146.363 18.599 146.643 18.7895 146.643 19.2608C146.643 19.3711 146.603 19.6218 146.553 19.8323L145.881 23.0711H143.234L143.605 21.4166C143.635 21.2863 143.655 21.176 143.655 21.1459C143.655 21.0055 143.565 20.9153 143.404 20.9153H137.137C136.907 20.9153 136.746 21.0356 136.696 21.2562L136.315 23.0711H133.668L134.38 19.6619C134.55 18.8797 134.911 18.599 135.744 18.599ZM142.522 18.619L143.735 12.7832C143.765 12.6428 143.786 12.5626 143.786 12.4523C143.786 12.2517 143.585 12.2116 143.415 12.2116H141.509L141.409 12.713C141.058 14.4778 140.246 16.9244 139.013 18.619H142.522ZM155.628 9.71484C158.846 9.71484 161.062 11.7303 161.062 14.568C161.062 18.0776 157.673 21.0958 153.803 21.0958C150.614 21.0958 148.408 19.0302 148.408 16.1824C148.408 12.6829 151.707 9.71484 155.628 9.71484ZM154.053 18.5589C155.999 18.5589 157.954 16.8342 157.954 14.7485C157.954 13.2143 156.871 12.2517 155.397 12.2517C153.432 12.2517 151.496 13.9163 151.496 16.012C151.496 17.5562 152.559 18.5589 154.053 18.5589ZM162.406 19.7922L164 12.2116H162.918L163.399 9.89534H170.959C171.601 9.89534 171.972 10.1861 171.972 10.7176C171.972 10.8078 171.952 10.9281 171.932 11.0184L171.491 13.1442H168.834L168.914 12.7832C168.934 12.7029 168.964 12.5826 168.964 12.5024C168.964 12.342 168.894 12.2116 168.663 12.2116H166.969L166.557 14.1669H167.731C169.495 14.1669 171.782 14.6382 171.782 16.9545C171.782 19.5115 169.445 20.9153 166.708 20.9153H163.379C162.737 20.9153 162.366 20.6245 162.366 20.093C162.366 20.0028 162.386 19.8925 162.406 19.7922ZM167.199 18.6792C168.152 18.6792 168.733 17.9873 168.733 17.2654C168.733 16.7841 168.412 16.403 167.701 16.403H166.086L165.705 18.1377C165.675 18.2581 165.655 18.3884 165.655 18.4486C165.655 18.5889 165.745 18.6792 165.976 18.6792H167.199ZM175.02 12.2116H173.937L174.419 9.89534H179.984C181.959 9.89534 183.353 11.1287 183.353 13.074C183.353 14.8388 182.19 16.3027 180.876 16.9846C180.245 17.3055 179.533 17.506 178.72 17.506H176.875L176.163 20.9153H173.185L175.02 12.2116ZM178.48 15.1997C179.513 15.1997 180.325 14.4076 180.325 13.3447C180.325 12.5826 179.864 12.2116 179.162 12.2116H177.998L177.367 15.1997H178.48ZM185.719 12.5526C185.75 12.332 185.649 12.2116 185.419 12.2116H184.707L185.188 9.89534H188.026C188.878 9.89534 189.179 10.2363 189.008 11.0184L188.206 14.7786C188.076 15.4705 187.695 16.6136 187.695 16.6136H187.725C187.725 16.6136 188.447 15.4905 189.038 14.7786L193.18 9.89534H196.328L194.574 18.2681C194.533 18.4787 194.634 18.599 194.874 18.599H195.586L195.105 20.9153H192.267C191.415 20.9153 191.114 20.5744 191.285 19.7922L192.077 16.012C192.227 15.3201 192.608 14.1168 192.608 14.1168H192.578C192.578 14.1168 191.896 15.29 191.285 16.012L187.133 20.9153H183.955L185.719 12.5526ZM200.8 15.3903L199.427 12.5626C199.286 12.2918 199.126 12.2116 198.725 12.2116H198.274L198.755 9.90535H200.349C201.131 9.90535 201.653 10.0558 201.893 10.6373L202.495 12.0111C202.796 12.6929 202.956 13.3948 202.956 13.3948H202.996C202.996 13.3948 203.408 12.723 203.989 12.0111L205.102 10.6373C205.483 10.1661 205.864 9.90535 206.616 9.90535H208.712L208.231 12.2116H207.609C207.328 12.2116 207.168 12.2918 206.947 12.5325L204.32 15.5106L206.827 20.9153H203.608L202.666 18.7594C202.425 18.2179 202.184 17.4158 202.184 17.4158H202.144C202.144 17.4158 201.683 18.1277 201.171 18.7594L199.387 20.9153H196.038L200.8 15.3903ZM213.365 19.4914L214.748 12.8634C214.778 12.7431 214.829 12.4924 214.829 12.4523C214.829 12.3119 214.718 12.2217 214.518 12.2217H213.796L214.297 9.90535H217.135C217.837 9.90535 218.148 10.136 218.148 10.6474C218.148 10.7978 218.067 11.1888 218.037 11.3393L216.654 17.9673C216.623 18.0976 216.573 18.3383 216.573 18.3984C216.573 18.4987 216.694 18.609 216.894 18.609H220.564L222.389 9.90535H225.357L223.532 18.609H223.843C224.525 18.609 224.816 18.7995 224.816 19.2708C224.816 19.4112 224.745 19.7621 224.695 19.9827L224.044 23.0812H221.477L221.787 21.567C221.818 21.4267 221.868 21.2161 221.868 21.1359C221.868 21.0155 221.787 20.9253 221.627 20.9253H214.277C213.585 20.9253 213.254 20.6646 213.254 20.2435C213.254 20.0329 213.335 19.6719 213.365 19.4914ZM226.45 18.609H227.683L229.027 12.2217H227.784L228.265 9.90535H233.559L233.078 12.2217H231.835L230.491 18.609H231.735L231.253 20.9253H225.969L226.45 18.609ZM235.565 12.7832C235.605 12.6328 235.615 12.5626 235.615 12.4623C235.615 12.2618 235.414 12.2116 235.254 12.2116H234.602L235.084 9.90535H237.691C238.563 9.90535 238.924 10.1961 238.924 10.7777C238.924 10.9047 238.907 11.0451 238.874 11.1989L238.212 14.3073H242.233L242.925 11.0284C243.105 10.1761 243.486 9.90535 244.289 9.90535H247.207L246.725 12.2116H245.983C245.783 12.2116 245.632 12.3219 245.582 12.5526L243.827 20.9153H240.849L241.752 16.6036H237.731L236.828 20.9153H233.86L235.565 12.7832ZM254.627 16.4531L252.471 13.4049H255.008L257.164 16.5635L253.995 19.7321H251.268L254.627 16.4531ZM250.315 16.4531L248.149 13.4049H250.696L252.852 16.5635L249.312 19.7321H246.545L250.315 16.4531Z" fill="#626261"/>
</g>
</g>
<defs>
<clipPath id="clip0_813_24456">
<rect width="257.111" height="32" fill="white"/>
</clipPath>
<clipPath id="clip1_813_24456">
<rect width="213" height="13" fill="white" transform="translate(44.1113 9.5)"/>
</clipPath>
</defs>
</svg>
