<svg width="16" height="15" viewBox="0 0 16 15" fill="none" xmlns="http://www.w3.org/2000/svg">
<path d="M8 0C12.1422 0 15.5 3.3585 15.5 7.5C15.5 11.6415 12.1422 15 8 15C3.85775 15 0.5 11.6415 0.5 7.5C0.5 3.3585 3.85775 0 8 0ZM8 1.25025C4.55375 1.25025 1.75025 4.05375 1.75025 7.5C1.75025 10.9462 4.55375 13.7497 8 13.7497C11.4462 13.7497 14.2497 10.9462 14.2497 7.5C14.2497 4.05375 11.4462 1.25025 8 1.25025ZM7.999 9.37667C8.41266 9.37667 8.74799 9.71201 8.74799 10.1257C8.74799 10.5393 8.41266 10.8747 7.999 10.8747C7.58534 10.8747 7.25 10.5393 7.25 10.1257C7.25 9.71201 7.58534 9.37667 7.999 9.37667ZM7.99585 3.75C8.28062 3.74977 8.51613 3.9612 8.5536 4.23573L8.55879 4.31205L8.5615 7.68824C8.56174 7.9989 8.31011 8.25095 7.99945 8.25119C7.71467 8.25142 7.47916 8.04 7.44169 7.76547L7.4365 7.68914L7.4338 4.31295C7.43355 4.00229 7.68519 3.75025 7.99585 3.75Z" fill="#CF1B2B"/>
</svg>
