<svg width="60" height="60" viewBox="0 0 60 60" fill="none" xmlns="http://www.w3.org/2000/svg">
<g clip-path="url(#clip0_330_13316)">
<path d="M20.9016 1.9748C14.9067 4.0545 9.73668 8.00183 6.15096 13.237C2.56525 18.4722 0.752838 24.7192 0.979952 31.0606C1.20707 37.4019 3.46173 43.5033 7.41277 48.4686C11.3638 53.4338 16.803 57.0012 22.9313 58.6467C27.8997 59.9287 33.1051 59.985 38.1001 58.8107C42.625 57.7943 46.8084 55.6203 50.2407 52.5014C53.8129 49.1561 56.4059 44.9005 57.7407 40.192C59.1916 35.0717 59.4497 29.687 58.4954 24.4514H30.5954V36.0248H46.7532C46.4303 37.8707 45.7383 39.6324 44.7186 41.2046C43.6989 42.7768 42.3725 44.1272 40.8188 45.1748C38.8458 46.4799 36.6216 47.3581 34.2891 47.7529C31.9498 48.1879 29.5503 48.1879 27.211 47.7529C24.84 47.2627 22.5971 46.2841 20.6251 44.8795C17.457 42.6369 15.0782 39.451 13.8282 35.7764C12.557 32.0329 12.557 27.9745 13.8282 24.2311C14.718 21.6071 16.189 19.2179 18.1313 17.242C20.3541 14.9392 23.1682 13.2932 26.2649 12.4845C29.3615 11.6758 32.6211 11.7357 35.686 12.6576C38.0802 13.3926 40.2697 14.6767 42.0798 16.4076C43.9016 14.5951 45.7204 12.7779 47.536 10.9561C48.4735 9.97636 49.4954 9.04355 50.4188 8.04043C47.6558 5.46922 44.4126 3.46851 40.8751 2.15293C34.4331 -0.186183 27.3843 -0.249045 20.9016 1.9748Z" fill="white"/>
<path d="M20.9018 1.97317C27.3839 -0.252184 34.4326 -0.190978 40.8752 2.14661C44.4134 3.47113 47.6551 5.48148 50.4143 8.06224C49.4768 9.06536 48.4877 10.0029 47.5314 10.9779C45.7127 12.7935 43.8955 14.6029 42.0799 16.406C40.2698 14.6751 38.0804 13.3909 35.6861 12.656C32.6223 11.7309 29.3628 11.6675 26.2653 12.4729C23.1678 13.2783 20.352 14.9213 18.1268 17.2216C16.1844 19.1976 14.7134 21.5867 13.8236 24.2107L4.10645 16.6872C7.58461 9.78987 13.6068 4.51391 20.9018 1.97317Z" fill="#E33629"/>
<path d="M1.5285 24.1406C2.05079 21.5522 2.91789 19.0454 4.10663 16.6875L13.8238 24.2297C12.5526 27.9732 12.5526 32.0315 13.8238 35.775C10.5863 38.275 7.34725 40.7875 4.10663 43.3125C1.13077 37.389 0.223187 30.6399 1.5285 24.1406Z" fill="#F8BD00"/>
<path d="M30.5949 24.4453H58.4949C59.4492 29.6809 59.191 35.0656 57.7402 40.1859C56.4053 44.8944 53.8124 49.1501 50.2402 52.4953C47.1042 50.0484 43.9542 47.6203 40.8183 45.1734C42.373 44.1247 43.7 42.7729 44.7197 41.1991C45.7395 39.6252 46.4309 37.8616 46.7527 36.0141H30.5949C30.5902 32.1609 30.5949 28.3031 30.5949 24.4453Z" fill="#587DBD"/>
<path d="M4.10156 43.3129C7.34219 40.8129 10.5812 38.3004 13.8187 35.7754C15.0713 39.4513 17.4535 42.6374 20.625 44.8785C22.6032 46.2766 24.8509 47.2473 27.225 47.7285C29.5643 48.1635 31.9638 48.1635 34.3031 47.7285C36.6356 47.3337 38.8598 46.4555 40.8328 45.1504C43.9687 47.5973 47.1187 50.0254 50.2547 52.4723C46.8229 55.5929 42.6395 57.7686 38.1141 58.7863C33.1191 59.9606 27.9137 59.9043 22.9453 58.6223C19.0158 57.5731 15.3454 55.7235 12.1641 53.1895C8.79685 50.5161 6.04667 47.1471 4.10156 43.3129Z" fill="#319F43"/>
</g>
<defs>
<clipPath id="clip0_330_13316">
<rect width="60" height="60" fill="white"/>
</clipPath>
</defs>
</svg>
