<svg width="32" height="32" viewBox="0 0 32 32" fill="none" xmlns="http://www.w3.org/2000/svg">
<g clip-path="url(#clip0_226_29101)">
<path d="M1.64103 5.74414H30.359C31.2653 5.74414 32 6.47887 32 7.38517V24.6159C32 25.5223 31.2653 26.257 30.359 26.257H1.64103C0.734728 26.257 0 25.5223 0 24.6159V7.38517C0 6.47887 0.734728 5.74414 1.64103 5.74414Z" fill="#16366F"/>
<path d="M18.42 15.9998C18.42 20.0673 15.1228 23.3639 11.0555 23.3639C6.98823 23.3639 3.69141 20.0671 3.69141 15.9998C3.69141 11.9329 6.98831 8.63574 11.0555 8.63574C15.1227 8.63574 18.42 11.933 18.42 15.9998Z" fill="#D9222A"/>
<path d="M20.9408 8.63599C19.0381 8.63599 17.3042 9.35787 15.9972 10.5423C15.731 10.7839 15.4825 11.0443 15.2537 11.3216H16.7415C16.9452 11.5693 17.1327 11.8298 17.3029 12.1016H14.6923C14.5353 12.3527 14.3936 12.6132 14.268 12.8814H17.727C17.8457 13.1352 17.9498 13.3955 18.0388 13.6611H13.9562C13.8704 13.9169 13.799 14.1772 13.7422 14.441H18.2525C18.3629 14.9534 18.4185 15.4761 18.4183 16.0003C18.4183 16.8181 18.2848 17.6049 18.0387 18.3395H13.9561C14.0449 18.6053 14.149 18.8657 14.2677 19.1194H17.7269C17.6012 19.3877 17.4594 19.6482 17.3024 19.8995H14.6921C14.8626 20.1714 15.0503 20.4319 15.2536 20.6788H16.7411C16.5126 20.9566 16.264 21.2173 15.9973 21.4588C17.3044 22.643 19.038 23.3646 20.9409 23.3646C25.0081 23.3645 28.3054 20.0677 28.3054 16.0005C28.3054 11.9336 25.0082 8.63636 20.9409 8.63636" fill="#EE9F2D"/>
<path d="M27.328 20.1047C27.328 19.9734 27.4343 19.8667 27.5657 19.8667C27.6972 19.8667 27.8035 19.9734 27.8035 20.1047C27.8035 20.236 27.6972 20.3426 27.5657 20.3426C27.4344 20.3426 27.3279 20.2361 27.328 20.1047ZM27.5657 20.2856C27.6656 20.2855 27.7465 20.2046 27.7466 20.1047C27.7466 20.0049 27.6657 19.9241 27.5659 19.9241H27.5657C27.4661 19.9239 27.3852 20.0046 27.3851 20.1042V20.1048C27.3849 20.2046 27.4658 20.2855 27.5655 20.2856C27.5656 20.2856 27.5657 20.2856 27.5657 20.2856ZM27.5336 20.2093H27.4849V20.0003H27.573C27.5915 20.0003 27.6103 20.0003 27.6266 20.0107C27.6435 20.0221 27.6531 20.0423 27.6531 20.0631C27.6531 20.0865 27.6393 20.1084 27.6169 20.117L27.6553 20.2093H27.6014L27.5694 20.1266H27.5337L27.5336 20.2093ZM27.5336 20.0907H27.5606C27.5707 20.0907 27.5813 20.0915 27.5904 20.0866C27.5984 20.0815 27.6025 20.0719 27.6025 20.0626C27.6025 20.0546 27.5976 20.0454 27.5907 20.0415C27.5822 20.0361 27.5687 20.0373 27.5596 20.0373H27.5336V20.0907ZM9.33875 16.8061C9.25485 16.7963 9.21793 16.7937 9.16029 16.7937C8.70716 16.7937 8.47775 16.9492 8.47775 17.256C8.47775 17.4452 8.58975 17.5656 8.76439 17.5656C9.09005 17.5656 9.32476 17.2554 9.33875 16.8061ZM9.92013 18.1598H9.25772L9.27294 17.8448C9.07089 18.0937 8.80131 18.212 8.435 18.212C8.00168 18.212 7.70458 17.8736 7.70458 17.3821C7.70458 16.6427 8.22133 16.2112 9.10835 16.2112C9.19894 16.2112 9.31516 16.2194 9.43414 16.2346C9.45896 16.1344 9.46544 16.0916 9.46544 16.0377C9.46544 15.8363 9.32611 15.7612 8.95262 15.7612C8.56152 15.7568 8.23893 15.8544 8.10646 15.898C8.11483 15.8475 8.21723 15.2146 8.21723 15.2146C8.61567 15.0978 8.87844 15.0539 9.17416 15.0539C9.86064 15.0539 10.2242 15.3621 10.2236 15.9447C10.2249 16.1008 10.1991 16.2934 10.1588 16.5465C10.0894 16.9868 9.94052 17.9298 9.92013 18.1598ZM7.37005 18.1598H6.57054L7.02851 15.2881L6.00595 18.1598H5.46113L5.39385 15.3045L4.91245 18.1598H4.16406L4.78921 14.4242H5.93875L6.00849 16.5151L6.7097 14.4242H7.98835L7.37005 18.1598ZM21.9333 16.8061C21.8498 16.7963 21.8126 16.7937 21.7552 16.7937C21.3022 16.7937 21.0728 16.9492 21.0728 17.256C21.0728 17.4452 21.1846 17.5656 21.3593 17.5656C21.685 17.5656 21.9198 17.2554 21.9333 16.8061ZM22.5152 18.1598H21.8528L21.8678 17.8448C21.6658 18.0937 21.396 18.212 21.0301 18.212C20.5966 18.212 20.2998 17.8736 20.2998 17.3821C20.2998 16.6427 20.8162 16.2112 21.7034 16.2112C21.794 16.2112 21.91 16.2194 22.0289 16.2346C22.0537 16.1344 22.0602 16.0916 22.0602 16.0377C22.0602 15.8363 21.921 15.7612 21.5475 15.7612C21.1564 15.7568 20.8342 15.8544 20.7012 15.898C20.7096 15.8475 20.8123 15.2146 20.8123 15.2146C21.2108 15.0978 21.4734 15.0539 21.7687 15.0539C22.4555 15.0539 22.8191 15.3621 22.8185 15.9447C22.8198 16.1008 22.794 16.2934 22.7536 16.5465C22.6846 16.9868 22.5354 17.9298 22.5152 18.1598ZM13.4736 18.1136C13.2547 18.1825 13.0841 18.212 12.8992 18.212C12.4905 18.212 12.2674 17.9771 12.2674 17.5447C12.2616 17.4105 12.3262 17.0573 12.3769 16.7349C12.4231 16.4512 12.7236 14.6619 12.7236 14.6619H13.5183L13.4255 15.1218H13.9055L13.7971 15.8519H13.3154C13.2231 16.4296 13.0916 17.1493 13.0901 17.2447C13.0901 17.4013 13.1737 17.4696 13.3637 17.4696C13.4549 17.4696 13.5254 17.4603 13.5793 17.4409L13.4736 18.1136ZM15.9101 18.089C15.6371 18.1724 15.3737 18.2128 15.0946 18.2121C14.205 18.2112 13.7413 17.7466 13.7413 16.8569C13.7413 15.8184 14.3312 15.0539 15.132 15.0539C15.7872 15.0539 16.2057 15.482 16.2057 16.1533C16.2057 16.376 16.1769 16.5934 16.1077 16.9004H14.5252C14.4717 17.3411 14.7537 17.5247 15.2159 17.5247C15.5004 17.5247 15.757 17.4661 16.0423 17.3334L15.9101 18.089ZM15.4635 16.288C15.4679 16.2247 15.5477 15.7457 15.0937 15.7457C14.8405 15.7457 14.6595 15.9387 14.5858 16.288H15.4635ZM10.4001 16.0821C10.4001 16.4664 10.5864 16.7314 11.0089 16.9304C11.3327 17.0825 11.3828 17.1277 11.3828 17.2656C11.3828 17.455 11.24 17.5404 10.9237 17.5404C10.6852 17.5404 10.4633 17.5032 10.2074 17.4206C10.2074 17.4206 10.1023 18.0902 10.0975 18.1222C10.2792 18.1618 10.4413 18.1986 10.9295 18.2121C11.773 18.2121 12.1626 17.8909 12.1626 17.1967C12.1626 16.7792 11.9996 16.5343 11.5991 16.3502C11.2638 16.1963 11.2254 16.162 11.2254 16.0201C11.2254 15.8558 11.3582 15.7721 11.6167 15.7721C11.7736 15.7721 11.9879 15.7888 12.191 15.8177L12.3049 15.1131C12.0978 15.0803 11.784 15.0539 11.6013 15.0539C10.7069 15.0539 10.3973 15.5211 10.4001 16.0821ZM19.7986 15.1338C20.0207 15.1338 20.2277 15.192 20.513 15.3356L20.6438 14.5249C20.5267 14.4789 20.1144 14.209 19.7652 14.209C19.2301 14.209 18.7778 14.4744 18.4597 14.9126C17.9957 14.7589 17.805 15.0695 17.5712 15.3789L17.3635 15.4273C17.3792 15.3254 17.3934 15.2242 17.3886 15.1218H16.6544C16.5541 16.062 16.3763 17.0143 16.2372 17.9557L16.2009 18.1598H17.0007C17.1342 17.2924 17.2074 16.737 17.2519 16.3611L17.5531 16.1936C17.598 16.0262 17.7389 15.9697 18.0214 15.9765C17.9834 16.1819 17.9644 16.3904 17.9647 16.5994C17.9647 17.5933 18.5009 18.2121 19.3616 18.2121C19.5833 18.2121 19.7736 18.1829 20.0681 18.1031L20.2089 17.2514C19.9438 17.3818 19.7264 17.4432 19.5294 17.4432C19.0647 17.4432 18.7835 17.1001 18.7835 16.5331C18.7834 15.7105 19.2017 15.1338 19.7986 15.1338Z" fill="black"/>
<path d="M7.59662 17.9382H6.79698L7.25524 15.0669L6.23268 17.9382H5.68777L5.62041 15.0833L5.13906 17.9382H4.39062L5.01577 14.2031H6.16531L6.19764 16.5154L6.97319 14.2031H8.21491L7.59662 17.9382Z" fill="white"/>
<path d="M26.5664 14.4248L26.3892 15.5041C26.1705 15.2164 25.9357 15.0082 25.6256 15.0082C25.2222 15.0082 24.855 15.314 24.6146 15.7641C24.28 15.6947 23.9337 15.5769 23.9337 15.5769L23.9336 15.5797C23.9606 15.3281 23.9713 15.1745 23.9689 15.1224H23.2346C23.1346 16.0626 22.9568 17.0149 22.8179 17.9563L22.7812 18.1604H23.5809C23.6889 17.459 23.7717 16.8766 23.8325 16.4147C24.1057 16.1679 24.2425 15.9525 24.5185 15.9668C24.3963 16.2625 24.3247 16.6029 24.3247 16.9521C24.3247 17.7117 24.709 18.2127 25.2902 18.2127C25.5831 18.2127 25.8079 18.1117 26.0272 17.8775L25.9898 18.1599H26.7461L27.355 14.4248H26.5664ZM25.5666 17.4583C25.2944 17.4583 25.157 17.2569 25.157 16.8595C25.157 16.2624 25.4143 15.839 25.777 15.839C26.0517 15.839 26.2004 16.0484 26.2004 16.4342C26.2004 17.0365 25.9391 17.4583 25.5666 17.4583Z" fill="black"/>
<path d="M9.56744 16.5848C9.48367 16.5751 9.44658 16.5725 9.38914 16.5725C8.93597 16.5725 8.70672 16.7279 8.70672 17.0347C8.70672 17.2236 8.81872 17.3443 8.99308 17.3443C9.31903 17.3443 9.55374 17.0342 9.56744 16.5848ZM10.1491 17.938H9.48674L9.5018 17.6236C9.29991 17.872 9.03 17.9908 8.66401 17.9908C8.2305 17.9908 7.93359 17.6523 7.93359 17.1609C7.93359 16.4211 8.45015 15.9899 9.33733 15.9899C9.42795 15.9899 9.54418 15.9981 9.66299 16.0133C9.68777 15.9131 9.69425 15.8703 9.69425 15.8161C9.69425 15.6147 9.55513 15.54 9.18159 15.54C8.79033 15.5355 8.46795 15.6332 8.33528 15.6763C8.34365 15.626 8.44604 14.9937 8.44604 14.9937C8.84436 14.8764 9.10742 14.8325 9.4028 14.8325C10.0895 14.8325 10.4532 15.1409 10.4526 15.7229C10.4538 15.8796 10.4277 16.0721 10.3876 16.325C10.3184 16.765 10.1693 17.7086 10.1491 17.938ZM20.8724 14.3034L20.7415 15.1144C20.4563 14.971 20.2492 14.9125 20.0273 14.9125C19.4304 14.9125 19.012 15.4892 19.012 16.3118C19.012 16.8788 19.2933 17.2217 19.7579 17.2217C19.9548 17.2217 20.1721 17.1605 20.4371 17.0299L20.2968 17.8812C20.002 17.9615 19.812 17.9908 19.59 17.9908C18.7295 17.9908 18.1931 17.3719 18.1931 16.3781C18.1931 15.0427 18.934 14.1094 19.9937 14.1094C20.3427 14.1094 20.7552 14.2574 20.8724 14.3034ZM22.1624 16.5848C22.0786 16.5751 22.0417 16.5725 21.9841 16.5725C21.5311 16.5725 21.3016 16.7279 21.3016 17.0347C21.3016 17.2236 21.4136 17.3443 21.5882 17.3443C21.9138 17.3443 22.1487 17.0342 22.1624 16.5848ZM22.7441 17.938H22.0815L22.0967 17.6236C21.8947 17.872 21.6249 17.9908 21.2589 17.9908C20.8256 17.9908 20.5285 17.6523 20.5285 17.1609C20.5285 16.4211 21.0452 15.9899 21.9321 15.9899C22.0229 15.9899 22.1389 15.9981 22.2579 16.0133C22.2825 15.9131 22.2892 15.8703 22.2892 15.8161C22.2892 15.6147 22.15 15.54 21.7765 15.54C21.3854 15.5355 21.0628 15.6332 20.9302 15.6763C20.9386 15.626 21.0411 14.9937 21.0411 14.9937C21.4394 14.8764 21.7023 14.8325 21.9977 14.8325C22.6845 14.8325 23.0481 15.1409 23.0472 15.7229C23.0486 15.8796 23.0228 16.0721 22.9825 16.325C22.9135 16.765 22.764 17.7086 22.7441 17.938ZM13.7024 17.8919C13.4834 17.9609 13.3128 17.9908 13.1281 17.9908C12.7193 17.9908 12.4963 17.7559 12.4963 17.3234C12.4906 17.1888 12.5552 16.836 12.606 16.5137C12.652 16.2295 12.9525 14.4405 12.9525 14.4405H13.7471L13.6544 14.9005H14.0623L13.9537 15.6303H13.5445C13.4522 16.2084 13.3203 16.9275 13.319 17.0231C13.319 17.1802 13.4028 17.248 13.5927 17.248C13.6837 17.248 13.7542 17.2391 13.8082 17.2196L13.7024 17.8919ZM16.139 17.8677C15.8662 17.9511 15.6024 17.9913 15.3234 17.9908C14.4338 17.9899 13.9701 17.5253 13.9701 16.6356C13.9701 15.5968 14.5601 14.8325 15.3609 14.8325C16.0161 14.8325 16.4345 15.2603 16.4345 15.932C16.4345 16.1549 16.4058 16.3723 16.3368 16.6791H14.7542C14.7007 17.1198 14.9827 17.3036 15.445 17.3036C15.7293 17.3036 15.986 17.2448 16.2711 17.1118L16.139 17.8677ZM15.6922 16.0662C15.697 16.0031 15.7766 15.5239 15.3224 15.5239C15.0694 15.5239 14.8884 15.7175 14.8147 16.0662H15.6922ZM10.6288 15.8609C10.6288 16.2451 10.8151 16.5097 11.2377 16.7091C11.5614 16.8612 11.6115 16.9065 11.6115 17.0443C11.6115 17.2337 11.4686 17.3191 11.1525 17.3191C10.9139 17.3191 10.692 17.2819 10.436 17.1993C10.436 17.1993 10.3312 17.8689 10.3264 17.9009C10.5077 17.9406 10.67 17.9768 11.1582 17.9908C12.0019 17.9908 12.3914 17.6696 12.3914 16.9755C12.3914 16.5579 12.2284 16.313 11.8277 16.1289C11.4927 15.9747 11.4539 15.9409 11.4539 15.7988C11.4539 15.6347 11.587 15.5503 11.8453 15.5503C12.0021 15.5503 12.2165 15.5675 12.4199 15.5964L12.5336 14.8916C12.3267 14.8588 12.0129 14.8325 11.8301 14.8325C10.9356 14.8325 10.6262 15.2993 10.6288 15.8609ZM26.9754 17.938H26.2191L26.2567 17.6552C26.0373 17.8897 25.8126 17.9908 25.5196 17.9908C24.9383 17.9908 24.5542 17.4897 24.5542 16.7303C24.5542 15.7198 25.15 14.868 25.8551 14.868C26.1652 14.868 26.3999 14.9947 26.6184 15.2822L26.7958 14.2029H27.5843L26.9754 17.938ZM25.7962 17.2361C26.1685 17.2361 26.43 16.8142 26.43 16.2124C26.43 15.8265 26.2811 15.6171 26.0064 15.6171C25.6438 15.6171 25.3863 16.0404 25.3863 16.6376C25.3862 17.035 25.524 17.2361 25.7962 17.2361ZM23.4641 14.9005C23.3641 15.8407 23.1863 16.793 23.0472 17.7339L23.0107 17.938H23.8103C24.0963 16.0805 24.1655 15.7178 24.6139 15.7632C24.6854 15.3831 24.8183 15.0501 24.9175 14.8821C24.5826 14.8123 24.3956 15.0016 24.1508 15.361C24.1701 15.2057 24.2055 15.0547 24.1985 14.9005H23.4641ZM16.8828 14.9005C16.7825 15.8407 16.6047 16.793 16.4657 17.7339L16.4293 17.938H17.2293C17.5149 16.0805 17.584 15.7178 18.0321 15.7632C18.1039 15.3831 18.2369 15.0501 18.3357 14.8821C18.0012 14.8123 17.814 15.0016 17.5695 15.361C17.5887 15.2057 17.6238 15.0547 17.6171 14.9005H16.8828ZM27.3267 17.7002C27.3267 17.5683 27.4332 17.4622 27.5645 17.4622C27.6956 17.4621 27.8021 17.5684 27.8022 17.6996V17.7002C27.8022 17.8315 27.6958 17.9379 27.5645 17.938C27.4332 17.9379 27.3268 17.8315 27.3267 17.7002ZM27.5645 17.8809C27.6643 17.8809 27.7451 17.8 27.7451 17.7003V17.7002C27.7452 17.6004 27.6644 17.5195 27.5647 17.5194H27.5645C27.4646 17.5194 27.3836 17.6004 27.3836 17.7002C27.3837 17.8 27.4647 17.8809 27.5645 17.8809ZM27.5323 17.8041H27.4836V17.5956H27.572C27.5903 17.5956 27.6092 17.5959 27.6251 17.606C27.6422 17.6176 27.652 17.6375 27.652 17.6583C27.652 17.6818 27.6381 17.7039 27.6155 17.7123L27.6541 17.804H27.6L27.568 17.7216H27.5323V17.804V17.8041ZM27.5323 17.686H27.5592C27.5692 17.686 27.5802 17.6867 27.5891 17.6819C27.5971 17.6768 27.6012 17.6671 27.6012 17.6578C27.6008 17.6492 27.5964 17.6412 27.5894 17.6363C27.581 17.6315 27.5672 17.6328 27.5581 17.6328H27.5323L27.5323 17.686Z" fill="white"/>
</g>
<defs>
<clipPath id="clip0_226_29101">
<rect width="32" height="32" fill="white"/>
</clipPath>
</defs>
</svg>
