<svg width="32" height="32" viewBox="0 0 32 32" fill="none" xmlns="http://www.w3.org/2000/svg">
<g clip-path="url(#clip0_226_29109)">
<path d="M1.64103 5.74414H30.359C31.2653 5.74414 32 6.47887 32 7.38517V24.6159C32 25.5223 31.2653 26.257 30.359 26.257H1.64103C0.734728 26.257 0 25.5223 0 24.6159V7.38517C0 6.47887 0.734728 5.74414 1.64103 5.74414Z" fill="#0E4595"/>
<path d="M12.0273 20.0508L13.3959 12.0197H15.5851L14.2154 20.0508H12.0273ZM22.1241 12.1928C21.6905 12.0301 21.0108 11.8555 20.1622 11.8555C17.9991 11.8555 16.4754 12.9447 16.4625 14.5058C16.4502 15.6599 17.5502 16.3037 18.3805 16.6878C19.2327 17.0815 19.5191 17.3325 19.515 17.6841C19.5097 18.2224 18.8346 18.4683 18.2054 18.4683C17.3292 18.4683 16.8638 18.3466 16.1448 18.0467L15.8627 17.9191L15.5555 19.717C16.0668 19.9412 17.0123 20.1354 17.994 20.1454C20.2951 20.1454 21.7888 19.0687 21.8059 17.4016C21.8141 16.488 21.2309 15.7927 19.9679 15.2195C19.2028 14.848 18.7342 14.6 18.7392 14.2239C18.7392 13.8901 19.1358 13.533 19.9928 13.533C20.7086 13.522 21.2272 13.6781 21.6313 13.8407L21.8274 13.9335L22.1241 12.1928ZM27.7573 12.0195H26.0658C25.5417 12.0195 25.1496 12.1626 24.9195 12.6855L21.6684 20.0455H23.9671C23.9671 20.0455 24.3429 19.0559 24.4279 18.8386C24.6792 18.8386 26.9123 18.8421 27.2316 18.8421C27.297 19.1232 27.4978 20.0455 27.4978 20.0455H29.5292L27.7573 12.0193V12.0195ZM25.0735 17.2056C25.2545 16.7429 25.9457 14.9605 25.9457 14.9605C25.9328 14.982 26.1254 14.4956 26.2359 14.194L26.3838 14.8865C26.3838 14.8865 26.8031 16.8036 26.8907 17.2056H25.0735ZM10.1689 12.0195L8.02573 17.4965L7.79734 16.3834C7.39836 15.1004 6.15529 13.7104 4.76562 13.0145L6.72526 20.0381L9.0414 20.0354L12.4877 12.0194H10.1689" fill="white"/>
<path d="M6.02658 12.0187H2.49669L2.46875 12.1858C5.21492 12.8506 7.03203 14.4571 7.78649 16.3873L7.0189 12.6966C6.88639 12.1881 6.5021 12.0363 6.02666 12.0186" fill="#F2AE14"/>
</g>
<defs>
<clipPath id="clip0_226_29109">
<rect width="32" height="32" fill="white"/>
</clipPath>
</defs>
</svg>
